<svg width="64" height="16" viewBox="0 0 64 16" fill="none" xmlns="http://www.w3.org/2000/svg">
<path d="M39.916 6.844V13H37.744V6.844H39.916ZM37.6 4.48C37.6 4.312 37.632 4.156 37.696 4.012C37.76 3.86 37.848 3.728 37.96 3.616C38.072 3.504 38.2 3.416 38.344 3.352C38.496 3.288 38.656 3.256 38.824 3.256C38.992 3.256 39.148 3.288 39.292 3.352C39.444 3.416 39.576 3.504 39.688 3.616C39.8 3.728 39.888 3.86 39.952 4.012C40.016 4.156 40.048 4.312 40.048 4.48C40.048 4.648 40.016 4.808 39.952 4.96C39.888 5.104 39.8 5.232 39.688 5.344C39.576 5.456 39.444 5.544 39.292 5.608C39.148 5.672 38.992 5.704 38.824 5.704C38.656 5.704 38.496 5.672 38.344 5.608C38.2 5.544 38.072 5.456 37.96 5.344C37.848 5.232 37.76 5.104 37.696 4.96C37.632 4.808 37.6 4.648 37.6 4.48ZM43.8242 8.656V13H41.6523V8.656H40.9323V6.844H41.6523V4.996H43.8242V6.844H45.0603V8.656H43.8242ZM48.6289 8.656V13H46.4569V8.656H45.7369V6.844H46.4569V4.996H48.6289V6.844H49.8649V8.656H48.6289ZM55.2987 9.028C55.2267 8.724 55.0787 8.48 54.8547 8.296C54.6307 8.112 54.3587 8.02 54.0387 8.02C53.7027 8.02 53.4267 8.108 53.2107 8.284C53.0027 8.46 52.8707 8.708 52.8147 9.028H55.2987ZM52.7547 10.288C52.7547 11.224 53.1947 11.692 54.0747 11.692C54.5467 11.692 54.9027 11.5 55.1427 11.116H57.2427C56.8187 12.524 55.7587 13.228 54.0627 13.228C53.5427 13.228 53.0667 13.152 52.6347 13C52.2027 12.84 51.8307 12.616 51.5187 12.328C51.2147 12.04 50.9787 11.696 50.8107 11.296C50.6427 10.896 50.5587 10.448 50.5587 9.952C50.5587 9.44 50.6387 8.98 50.7987 8.572C50.9587 8.156 51.1867 7.804 51.4827 7.516C51.7787 7.228 52.1347 7.008 52.5507 6.856C52.9747 6.696 53.4507 6.616 53.9787 6.616C54.4987 6.616 54.9667 6.696 55.3827 6.856C55.7987 7.008 56.1507 7.232 56.4387 7.528C56.7267 7.824 56.9467 8.188 57.0987 8.62C57.2507 9.044 57.3267 9.524 57.3267 10.06V10.288H52.7547ZM58.5682 6.844H60.7402V7.852C60.9722 7.484 61.2562 7.204 61.5922 7.012C61.9282 6.812 62.3202 6.712 62.7682 6.712C62.8242 6.712 62.8842 6.712 62.9482 6.712C63.0202 6.712 63.1002 6.72 63.1882 6.736V8.812C62.9002 8.668 62.5882 8.596 62.2522 8.596C61.7482 8.596 61.3682 8.748 61.1122 9.052C60.8642 9.348 60.7402 9.784 60.7402 10.36V13H58.5682V6.844Z" fill="white"/>
<rect y="4" width="36" height="9" fill="url(#paint0_linear_379_13)"/>
<defs>
<linearGradient id="paint0_linear_379_13" x1="16" y1="13" x2="-2.83122e-07" y2="13" gradientUnits="userSpaceOnUse">
<stop stop-color="white"/>
<stop offset="1" stop-opacity="0"/>
</linearGradient>
</defs>
</svg>
